PathFileType	3	(X/Y/Z)	dance_move_1__view1_aligned.trc
DataRate	CameraRate	NumFrames	NumMarkers	Units	OrigDataRate	OrigDataStartFrame	OrigNumFrames
100.0	100.0	13	19	mm	100.0	38	890
Frame#	Time	pelvis			neck			head			hip_left			hip_right			knee_left			knee_right			ankle_left			ankle_right			heel_left			heel_right			toe_left			toe_right			shoulder_left			shoulder_right			elbow_left			elbow_right			wrist_left			wrist_right			
		X1	Y1	Z1	X2	Y2	Z2	X3	Y3	Z3	X4	Y4	Z4	X5	Y5	Z5	X6	Y6	Z6	X7	Y7	Z7	X8	Y8	Z8	X9	Y9	Z9	X10	Y10	Z10	X11	Y11	Z11	X12	Y12	Z12	X13	Y13	Z13	X14	Y14	Z14	X15	Y15	Z15	X16	Y16	Z16	X17	Y17	Z17	X18	Y18	Z18	X19	Y19	Z19	
38	0.37000	-0.524773	939.374144	-1.580237	21.411269	1524.266116	-50.967556	17.210056	1680.114772	-150.423006	-77.137680	944.898033	5.817423	76.087954	933.850256	-8.977733	-158.798462	524.826326	35.956122	126.891024	505.706023	-22.408446	-192.914596	140.623413	169.436691	166.559153	110.450206	69.529591	-182.216226	97.129586	207.477459	169.724788	69.060013	111.244163	-267.913189	73.274255	1.521278	172.490423	18.768315	-107.056699	-161.221912	1462.832142	-8.766799	203.944725	1470.979503	-31.955290	-309.331164	1222.051272	-104.711648	297.159082	1260.920894	-203.532525	-340.532932	1302.727498	-342.750879	255.969471	1472.277149	-343.810160
39	0.38000	0.581318	939.198307	-3.615231	23.485715	1524.097123	-52.199860	19.520954	1679.775184	-152.233380	-75.996594	944.788082	3.837140	77.159069	933.608533	-11.067455	-156.814254	524.885554	35.243106	128.420547	506.003301	-23.815117	-191.379584	140.913668	168.078919	168.524587	111.001115	67.373812	-180.810794	97.409644	206.134776	171.704448	69.631099	109.075079	-266.035669	73.631680	-0.029418	174.442567	19.265649	-109.161988	-159.334469	1463.473775	-9.724621	206.129861	1469.976067	-34.062677	-305.062101	1221.085156	-104.051562	294.659378	1256.756622	-202.690285	-330.299927	1301.398003	-343.282346	247.668818	1462.827674	-345.929174
40	0.39000	1.687409	939.022470	-5.650226	25.560161	1523.928131	-53.432165	21.831852	1679.435596	-154.043754	-74.855508	944.678131	1.856858	78.230184	933.366810	-13.157177	-154.830045	524.944782	34.530090	129.950070	506.300580	-25.221788	-189.844572	141.203923	166.721146	170.490021	111.552024	65.218033	-179.405362	97.689701	204.792093	173.684108	70.202184	106.905995	-264.158149	73.989105	-1.580114	176.394711	19.762982	-111.267277	-157.447026	1464.115407	-10.682442	208.314998	1468.972631	-36.170065	-300.793039	1220.119041	-103.391476	292.159673	1252.592349	-201.848044	-320.066921	1300.068509	-343.813814	239.368165	1453.378198	-348.048188
41	0.40000	2.793500	938.846634	-7.685220	27.634606	1523.759138	-54.664469	24.142750	1679.096008	-155.854128	-73.714423	944.568180	-0.123425	79.301299	933.125088	-15.246899	-152.845837	525.004010	33.817074	131.479593	506.597858	-26.628459	-188.309560	141.494177	165.363374	172.455455	112.102933	63.062254	-177.999931	97.969759	203.449411	175.663768	70.773269	104.736911	-262.280629	74.346530	-3.130810	178.346856	20.260316	-113.372566	-155.559583	1464.757040	-11.640264	210.500134	1467.969195	-38.277453	-296.523976	1219.152925	-102.731390	289.659969	1248.428077	-201.005804	-309.833915	1298.739014	-344.345282	231.067513	1443.928723	-350.167202
42	0.41000	3.899591	938.670797	-9.720215	29.709052	1523.590146	-55.896773	26.453648	1678.756420	-157.664502	-72.573337	944.458229	-2.103708	80.372414	932.883365	-17.336621	-150.861628	525.063238	33.104058	133.009115	506.895136	-28.035130	-186.774549	141.784432	164.005601	174.420889	112.653842	60.906475	-176.594499	98.249817	202.106728	177.643428	71.344354	102.567827	-260.403110	74.703955	-4.681506	180.299000	20.757649	-115.477855	-153.672141	1465.398672	-12.598086	212.685271	1466.965759	-40.384840	-292.254914	1218.186810	-102.071304	287.160265	1244.263804	-200.163563	-299.600909	1297.409519	-344.876749	222.766860	1434.479247	-352.286216
43	0.42000	5.005682	938.494960	-11.755209	31.783498	1523.421153	-57.129077	28.764546	1678.416832	-159.474876	-71.432252	944.348279	-4.083991	81.443529	932.641642	-19.426344	-148.877420	525.122466	32.391042	134.538638	507.192415	-29.441801	-185.239537	142.074687	162.647829	176.386323	113.204751	58.750696	-175.189067	98.529875	200.764045	179.623087	71.915439	100.398743	-258.525590	75.061380	-6.232202	182.251144	21.254983	-117.583144	-151.784698	1466.040305	-13.555907	214.870407	1465.962323	-42.492228	-287.985851	1217.220694	-101.411219	284.660560	1240.099532	-199.321323	-289.367904	1296.080025	-345.408217	214.466207	1425.029772	-354.405230
44	0.43000	6.111773	938.319123	-13.790204	33.857944	1523.252161	-58.361381	31.075444	1678.077244	-161.285249	-70.291166	944.238328	-6.064274	82.514644	932.399919	-21.516066	-146.893211	525.181694	31.678026	136.068161	507.489693	-30.848472	-183.704525	142.364942	161.290056	178.351757	113.755660	56.594917	-173.783635	98.809933	199.421362	181.602747	72.486524	98.229660	-256.648070	75.418804	-7.782899	184.203288	21.752317	-119.688433	-149.897255	1466.681937	-14.513729	217.055544	1464.958887	-44.599616	-283.716789	1216.254579	-100.751133	282.160856	1235.935259	-198.479082	-279.134898	1294.750530	-345.939685	206.165554	1415.580296	-356.524244
45	0.44000	7.217864	938.143286	-15.825198	35.932390	1523.083169	-59.593685	33.386342	1677.737656	-163.095623	-69.150081	944.128377	-8.044556	83.585759	932.158196	-23.605788	-144.909003	525.240922	30.965009	137.597684	507.786971	-32.255143	-182.169513	142.655197	159.932284	180.317191	114.306569	54.439138	-172.378203	99.089990	198.078679	183.582407	73.057609	96.060576	-254.770550	75.776229	-9.333595	186.155432	22.249650	-121.793722	-148.009813	1467.323570	-15.471551	219.240680	1463.955451	-46.707003	-279.447727	1215.288463	-100.091047	279.661151	1231.770987	-197.636841	-268.901892	1293.421036	-346.471152	197.864901	1406.130821	-358.643258
46	0.45000	8.323955	937.967450	-17.860193	38.006836	1522.914176	-60.825990	35.697240	1677.398068	-164.905997	-68.008995	944.018426	-10.024839	84.656874	931.916473	-25.695510	-142.924794	525.300150	30.251993	139.127207	508.084250	-33.661814	-180.634501	142.945452	158.574511	182.282625	114.857477	52.283359	-170.972771	99.370048	196.735997	185.562067	73.628694	93.891492	-252.893031	76.133654	-10.884291	188.107576	22.746984	-123.899011	-146.122370	1467.965202	-16.429372	221.425817	1462.952016	-48.814391	-275.178664	1214.322348	-99.430961	277.161447	1227.606714	-196.794601	-258.668886	1292.091541	-347.002620	189.564248	1396.681345	-360.762272
47	0.46000	9.430046	937.791613	-19.895188	40.081281	1522.745184	-62.058294	38.008138	1677.058480	-166.716371	-66.867910	943.908475	-12.005122	85.727989	931.674751	-27.785232	-140.940585	525.359378	29.538977	140.656729	508.381528	-35.068485	-179.099489	143.235707	157.216739	184.248059	115.408386	50.127580	-169.567339	99.650106	195.393314	187.541727	74.199779	91.722408	-251.015511	76.491079	-12.434987	190.059721	23.244317	-126.004300	-144.234927	1468.606835	-17.387194	223.610953	1461.948580	-50.921778	-270.909602	1213.356233	-98.770875	274.661742	1223.442442	-195.952360	-248.435881	1290.762047	-347.534088	181.263595	1387.231870	-362.881286
48	0.47000	10.536137	937.615776	-21.930182	42.155727	1522.576191	-63.290598	40.319036	1676.718892	-168.526745	-65.726824	943.798524	-13.985405	86.799104	931.433028	-29.874954	-138.956377	525.418606	28.825961	142.186252	508.678806	-36.475156	-177.564477	143.525962	155.858966	186.213493	115.959295	47.971801	-168.161907	99.930164	194.050631	189.521387	74.770864	89.553324	-249.137991	76.848504	-13.985683	192.011865	23.741651	-128.109590	-142.347484	1469.248467	-18.345016	225.796089	1460.945144	-53.029166	-266.640539	1212.390117	-98.110789	272.162038	1219.278169	-195.110120	-238.202875	1289.432552	-348.065555	172.962943	1377.782394	-365.000300
49	0.48000	11.664815	937.481490	-23.328110	43.874804	1522.173791	-64.815850	42.174731	1675.894248	-170.698738	-64.563665	943.706413	-15.335109	87.893315	931.256566	-31.321124	-137.359384	525.501305	27.969889	143.466651	508.889723	-37.657894	-176.217114	143.812466	154.642350	187.694721	116.379123	46.368902	-166.899661	100.214079	192.851974	191.005106	75.207595	87.947037	-247.567769	77.156855	-15.313252	193.452765	24.107056	-129.669118	-140.775331	1469.471678	-19.602890	227.633920	1459.942614	-55.095019	-263.240529	1211.418284	-97.441971	270.659359	1215.786365	-194.241392	-230.562020	1286.774310	-347.551061	167.483943	1368.783389	-366.126540
50	0.49000	12.793492	937.347204	-24.726037	45.593880	1521.771390	-66.341102	44.030425	1675.069604	-172.870731	-63.400506	943.614302	-16.684813	88.987526	931.080105	-32.767293	-135.762391	525.584003	27.113817	144.747049	509.100639	-38.840632	-174.869752	144.098971	153.425733	189.175948	116.798951	44.766003	-165.637416	100.497994	191.653316	192.488825	75.644327	86.340750	-245.997548	77.465206	-16.640820	194.893664	24.472461	-131.228647	-139.203178	1469.694888	-20.860765	229.471750	1458.940084	-57.160872	-259.840519	1210.446450	-96.773153	269.156681	1212.294561	-193.372664	-222.921165	1284.116068	-347.036566	162.004944	1359.784384	-367.252779
